<svg width="563" height="567" viewBox="0 0 563 567" fill="none" xmlns="http://www.w3.org/2000/svg">
<path d="M29.9318 139.045V138.273C29.947 135.621 30.1818 133.508 30.6364 131.932C31.1061 130.356 31.7879 129.083 32.6818 128.114C33.5758 127.144 34.6515 126.265 35.9091 125.477C36.8485 124.871 37.6894 124.242 38.4318 123.591C39.1742 122.939 39.7652 122.22 40.2045 121.432C40.6439 120.629 40.8636 119.735 40.8636 118.75C40.8636 117.705 40.6136 116.788 40.1136 116C39.6136 115.212 38.9394 114.606 38.0909 114.182C37.2576 113.758 36.3333 113.545 35.3182 113.545C34.3333 113.545 33.4015 113.765 32.5227 114.205C31.6439 114.629 30.9242 115.265 30.3636 116.114C29.803 116.947 29.5 117.985 29.4545 119.227H20.1818C20.2576 116.197 20.9848 113.697 22.3636 111.727C23.7424 109.742 25.5682 108.265 27.8409 107.295C30.1136 106.311 32.6212 105.818 35.3636 105.818C38.3788 105.818 41.0455 106.318 43.3636 107.318C45.6818 108.303 47.5 109.735 48.8182 111.614C50.1364 113.492 50.7955 115.758 50.7955 118.409C50.7955 120.182 50.5 121.758 49.9091 123.136C49.3333 124.5 48.5227 125.712 47.4773 126.773C46.4318 127.818 45.197 128.765 43.7727 129.614C42.5758 130.326 41.5909 131.068 40.8182 131.841C40.0606 132.614 39.4924 133.508 39.1136 134.523C38.75 135.538 38.5606 136.788 38.5455 138.273V139.045H29.9318ZM34.4318 153.591C32.9167 153.591 31.6212 153.061 30.5455 152C29.4848 150.924 28.9621 149.636 28.9773 148.136C28.9621 146.652 29.4848 145.379 30.5455 144.318C31.6212 143.258 32.9167 142.727 34.4318 142.727C35.8712 142.727 37.1364 143.258 38.2273 144.318C39.3182 145.379 39.8712 146.652 39.8864 148.136C39.8712 149.136 39.6061 150.053 39.0909 150.886C38.5909 151.705 37.9318 152.364 37.1136 152.864C36.2955 153.348 35.4015 153.591 34.4318 153.591Z" fill="#0D62B2"/>
<path d="M560.5 143.494L562.742 142.387L562.742 142.387L560.5 143.494ZM560.75 144L562.623 115.193L536.739 127.975L560.75 144ZM485.75 66L484.915 68.3564C506.612 76.0454 520.785 86.781 531.584 99.6568C542.448 112.61 549.954 127.784 558.258 144.601L560.5 143.494L562.742 142.387C554.489 125.675 546.732 109.937 535.415 96.4438C524.033 82.8728 509.11 71.6258 486.585 63.6436L485.75 66Z" fill="#0D62B2"/>
<path d="M482.136 564.646L480.898 562.474L480.898 562.474L482.136 564.646ZM481.641 564.928L510.508 565.082L496.207 540.006L481.641 564.928ZM555.605 484.999L553.203 484.308C546.833 506.459 536.902 521.304 524.587 532.922C512.199 544.61 497.35 553.092 480.898 562.474L482.136 564.646L483.375 566.818C499.725 557.493 515.119 548.729 528.018 536.559C540.991 524.319 551.393 508.693 558.008 485.69L555.605 484.999Z" fill="#0D62B2"/>
<path d="M46.5539 485.589L48.6349 484.203L48.6349 484.203L46.5539 485.589ZM46.2379 485.114L48.0789 513.923L72.1076 497.924L46.2379 485.114ZM131.086 553.38L131.609 550.936C109.071 546.111 93.5761 537.229 81.1347 525.747C68.6187 514.195 59.1312 499.968 48.6349 484.203L46.5539 485.589L44.473 486.974C54.9047 502.642 64.7116 517.393 77.7436 529.421C90.8504 541.517 107.157 550.815 130.563 555.825L131.086 553.38Z" fill="#0D62B2"/>
<path d="M0 0L4.20548 28.5595L26.836 10.6377L0 0ZM18.6909 28.9903L16.4018 29.9953C19.5487 37.1632 21.6332 44.2848 22.9663 51.4649L25.4242 51.0085L27.8822 50.5522C26.4852 43.0274 24.2942 35.5342 20.98 27.9853L18.6909 28.9903ZM27.5328 73.9615L25.0331 73.9992C25.0896 77.7557 25.0351 81.5568 24.9091 85.4185L27.4078 85.5L29.9064 85.5815C30.0343 81.6613 30.0905 77.7783 30.0325 73.9239L27.5328 73.9615Z" fill="#0D62B2"/>
<path d="M144.749 26L116.786 18.8298L124.558 46.6315L144.749 26ZM54.0898 90L56.0894 91.5006C57.9541 89.0159 59.8799 86.5906 61.8582 84.2268L59.941 82.6223L58.0239 81.0178C55.9903 83.4476 54.0094 85.9422 52.0903 88.4994L54.0898 90ZM72.7383 68.8208L74.4846 70.6097C78.9976 66.2039 83.6616 62.0897 88.3964 58.2867L86.8308 56.3376L85.2653 54.3884C80.4082 58.2897 75.6232 62.5106 70.9919 67.0319L72.7383 68.8208ZM102.064 45.28L103.43 47.3737C108.844 43.8409 114.235 40.7352 119.487 38.0832L118.36 35.8517L117.233 33.6201C111.81 36.3586 106.259 39.5572 100.698 43.1863L102.064 45.28Z" fill="#0D62B2"/>
<path d="M432.75 266L422.964 238.842L404.337 260.896L432.75 266ZM83.75 143.192L83.6529 145.69C86.9721 145.82 90.4017 146.014 93.9332 146.271L94.1148 143.778L94.2964 141.284C90.713 141.023 87.2269 140.826 83.8471 140.694L83.75 143.192ZM114.817 145.852L114.507 148.333C121.115 149.158 127.969 150.156 135.025 151.316L135.43 148.849L135.836 146.382C128.722 145.212 121.804 144.205 115.126 143.371L114.817 145.852ZM155.911 152.559L155.428 155.012C162.071 156.32 168.842 157.751 175.712 159.299L176.261 156.86L176.81 154.421C169.899 152.864 163.083 151.423 156.394 150.106L155.911 152.559ZM196.52 161.687L195.911 164.111C202.555 165.779 209.258 167.543 215.995 169.398L216.658 166.988L217.322 164.578C210.55 162.713 203.81 160.939 197.128 159.262L196.52 161.687ZM236.662 172.734L235.945 175.129C242.558 177.106 249.176 179.164 255.776 181.296L256.545 178.917L257.313 176.538C250.678 174.395 244.025 172.326 237.378 170.338L236.662 172.734ZM276.284 185.535L275.463 187.896C282.024 190.178 288.541 192.529 294.991 194.942L295.867 192.6L296.743 190.259C290.256 187.832 283.702 185.468 277.105 183.174L276.284 185.535ZM315.27 200.135L314.336 202.453C320.827 205.07 327.219 207.747 333.483 210.477L334.482 208.185L335.481 205.893C329.172 203.143 322.738 200.449 316.205 197.816L315.27 200.135ZM353.423 216.792L352.351 219.051C358.725 222.073 364.92 225.148 370.904 228.268L372.06 226.051L373.215 223.834C367.172 220.683 360.92 217.58 354.494 214.533L353.423 216.792ZM390.314 236.093L389.056 238.254C395.236 241.851 401.102 245.492 406.61 249.165L407.997 247.085L409.384 245.005C403.783 241.27 397.829 237.576 391.572 233.933L390.314 236.093Z" fill="#0D62B2"/>
</svg>
