<svg width="173" height="92" viewBox="0 0 173 92" fill="none" xmlns="http://www.w3.org/2000/svg">
<path d="M14.6274 54.5574C14.6274 49.2405 18.9391 44.9303 24.258 44.9303C29.5768 44.9303 33.8885 49.2405 33.8885 54.5574C33.8885 59.5372 30.1061 63.634 25.2564 64.1333C24.707 64.1899 24.258 64.6321 24.258 65.1844V69.8893M24.258 78.8033V80.2295M76.6911 54.5574C76.6911 49.2405 81.0028 44.9303 86.3217 44.9303C91.6405 44.9303 95.9522 49.2405 95.9522 54.5574C95.9522 59.6344 92.0207 63.7935 87.0351 64.1584C86.6421 64.1872 86.3217 64.5037 86.3217 64.8975V69.8893M86.3217 78.8033V80.2295M138.755 54.5574C138.755 49.2405 143.067 44.9303 148.385 44.9303C153.704 44.9303 158.016 49.2405 158.016 54.5574C158.016 59.6344 154.084 63.7935 149.099 64.1584C148.706 64.1872 148.385 64.5037 148.385 64.8975V69.8893M148.385 78.8033V80.2295M34.6019 12.127C34.6019 17.4439 30.2902 21.7541 24.9713 21.7541C19.6525 21.7541 15.3408 17.4439 15.3408 12.127C15.3408 6.81018 19.6525 2.5 24.9713 2.5C30.2902 2.5 34.6019 6.81018 34.6019 12.127ZM96.6656 12.127C96.6656 17.4439 92.3538 21.7541 87.035 21.7541C81.7162 21.7541 77.4045 17.4439 77.4045 12.127C77.4045 6.81018 81.7162 2.5 87.035 2.5C92.3538 2.5 96.6656 6.81018 96.6656 12.127ZM85.965 34.2336H87.035C98.8546 34.2336 108.436 43.8118 108.436 55.627V88.7869C108.436 89.1807 108.117 89.5 107.723 89.5H65.2771C64.8831 89.5 64.5637 89.1807 64.5637 88.7869V55.627C64.5637 43.8118 74.1454 34.2336 85.965 34.2336ZM158.729 12.127C158.729 17.4439 154.418 21.7541 149.099 21.7541C143.78 21.7541 139.468 17.4439 139.468 12.127C139.468 6.81018 143.78 2.5 149.099 2.5C154.418 2.5 158.729 6.81018 158.729 12.127ZM148.029 34.2336H149.099C160.918 34.2336 170.5 43.8118 170.5 55.627V88.7869C170.5 89.1807 170.181 89.5 169.787 89.5H127.341C126.947 89.5 126.627 89.1807 126.627 88.7869V55.627C126.627 43.8118 136.209 34.2336 148.029 34.2336ZM24.4363 34.2336C12.3212 34.2336 2.5 44.0548 2.5 56.1699V88.5C2.5 89.0523 2.94772 89.5 3.5 89.5H45.3726C45.9249 89.5 46.3726 89.0523 46.3726 88.5V56.1699C46.3726 44.0548 36.5514 34.2336 24.4363 34.2336Z" stroke="#0D62B2" stroke-width="5" stroke-linecap="round"/>
</svg>
