<svg width="121" height="119" viewBox="0 0 121 119" fill="none" xmlns="http://www.w3.org/2000/svg">
<path d="M17.6174 92.146L22.3635 89.4221C22.6742 89.2438 22.8657 88.913 22.8657 88.5548V84.9962C22.8657 84.6381 22.6741 84.3072 22.3635 84.1289L18.4893 81.9055C18.0085 81.6296 17.8439 81.0153 18.1223 80.5359L21.367 74.9495M21.367 74.9501L26.0913 77.7211C26.3979 77.9009 26.7769 77.9045 27.0868 77.7305L30.2132 75.9755C30.5255 75.8001 30.7202 75.4712 30.7236 75.113L30.7661 70.6681C30.7714 70.1159 31.2233 69.6725 31.7755 69.6777L38.2745 69.7391M30.3928 104.327L30.5439 98.8844C30.5539 98.5262 30.3714 98.1901 30.0657 98.0033L27.0074 96.1344C26.7041 95.9491 26.3253 95.9387 26.0123 96.107L22.0641 98.2307C21.5794 98.4914 20.9752 98.3115 20.7121 97.8282L17.6188 92.146M51.0499 81.8494L46.3038 84.5733C45.9932 84.7516 45.8016 85.0824 45.8016 85.4406V88.9992C45.8016 89.3574 45.9932 89.6882 46.3038 89.8665L50.178 92.0899C50.6588 92.3658 50.8234 92.9801 50.545 93.4595L47.3003 99.046M47.3003 99.0454L42.576 96.2743C42.2694 96.0945 41.8904 96.0909 41.5805 96.2649L38.4542 98.0199C38.1419 98.1953 37.9472 98.5242 37.9437 98.8824L37.9012 103.327C37.896 103.879 37.4441 104.323 36.8918 104.318L30.3928 104.256M38.2745 69.6683L38.1234 75.111C38.1135 75.4692 38.2959 75.8053 38.6016 75.9921L41.6599 77.861C41.9632 78.0463 42.3421 78.0567 42.6551 77.8884L46.6033 75.7647C47.0879 75.504 47.6921 75.6839 47.9553 76.1672L51.0485 81.8494M47.551 38.6322L45.1796 36.3423C42.3473 33.6074 40.7477 29.839 40.7477 25.9018C40.7477 17.8861 47.2457 11.3881 55.2613 11.3881H58.129C66.2429 11.3881 72.8205 17.9658 72.8205 26.0797C72.8205 29.9154 71.3204 33.5991 68.6407 36.3435L66.406 38.6322M47.551 38.6322H66.406M47.551 38.6322H44.5155C42.4346 38.6322 40.7477 40.3191 40.7477 42.4C40.7477 44.4809 42.4346 46.1678 44.5155 46.1678H47.551M66.406 38.6322H69.0527C71.1336 38.6322 72.8205 40.3191 72.8205 42.4C72.8205 44.4809 71.1336 46.1678 69.0527 46.1678H67.9057M61.7408 38.6322L63.7529 25.5583C63.8731 24.7776 63.0833 24.1724 62.3608 24.4913L57.873 26.4722C57.613 26.587 57.3164 26.5857 57.0574 26.4687L52.6858 24.4934C51.9718 24.1708 51.1809 24.7573 51.2824 25.5342L52.9937 38.6322M47.551 46.1678V49.5159C47.551 55.1367 52.1076 59.6932 57.7284 59.6932C63.3492 59.6932 67.9057 55.1367 67.9057 49.5159V46.1678M47.551 46.1678H67.9057M95.3687 70.9V13.9M95.3687 70.9H103.533H111.697M95.3687 70.9L98.9574 79.6731M95.3687 13.9V10.664C95.3687 6.15515 99.0238 2.5 103.533 2.5H103.921C108.216 2.5 111.697 5.96031 111.697 10.2288V13.9M95.3687 13.9H103.533H111.697M98.9574 79.6731L102.607 88.5955C102.946 89.424 104.119 89.424 104.458 88.5955L108.108 79.6731M98.9574 79.6731H103.533H108.108M111.697 70.9V13.9M111.697 70.9L108.108 79.6731M75.7874 49.0661H88.5628M118.5 49.0661V115.5C118.5 116.052 118.052 116.5 117.5 116.5H13.3039C13.199 116.5 13.0974 116.485 12.998 116.451C9.77358 115.367 3.45598 112.055 2.84345 107.032C2.28945 102.489 2.51669 68.1807 2.75612 46.1247C2.7688 44.9573 5.1331 44.5321 5.8106 45.4829C7.60492 48.0009 9.70472 49.0661 11.5903 49.0661C14.7006 49.0661 35.3048 49.0661 35.3048 49.0661M103.533 95.8352C104.305 97.7641 104.472 102.163 98.9574 104.327C92.064 107.032 81.373 107.805 79.2348 101.236C77.0966 94.6661 81.5674 93.8506 83.5112 89.1339C85.455 84.4172 82.2534 76.434 75.7874 75.692M33.8099 89.5782H33.9941C35.6857 89.5782 37.057 88.2069 37.057 86.5153C37.057 84.8237 35.6857 83.4524 33.9941 83.4524H33.8099C32.1295 83.4524 30.7629 84.8062 30.7471 86.4865C30.7311 88.1893 32.107 89.5782 33.8099 89.5782Z" stroke="#0D62B2" stroke-width="5" stroke-linecap="round"/>
</svg>
