<svg width="1747" height="211" viewBox="0 0 1747 211" fill="none" xmlns="http://www.w3.org/2000/svg">
<path d="M114.654 0.33176C113.743 23.0574 108.965 38.9653 90.7606 44.6467V67.3724C153.338 73.0538 170.404 53.9642 170.404 0.33176H159.027H114.654Z" fill="#00407C"/>
<path d="M617.532 211H652.234H686.935L771.879 0.331756H706.487L652.234 142.823L597.98 0.331741H532.588L617.532 211Z" fill="#00407C"/>
<path d="M283.97 9.20638L312.177 54.8287L340.384 9.20638H283.97Z" fill="#00407C"/>
<path d="M307.006 188.908L255.296 131.3V211H202.725V1.46804H265.397L312.177 77.1318L358.958 1.46804H421.63V211H369.058V131.3L317.348 188.908L312.177 194.669L307.006 188.908Z" fill="#00407C"/>
<path d="M0 0.331741H45.5106L68.2659 23.0574V211H0V0.331741Z" fill="#00407C"/>
<path d="M810.681 0.331756H856.192L878.947 23.0574V211H810.681V0.331756Z" fill="#00407C"/>
<path d="M1187.8 0.331741H1233.31L1256.06 23.0574V211H1187.8V0.331741Z" fill="#00407C"/>
<path d="M1649.06 188.3L1597.96 130.692V211H1546V0H1607.85L1654.17 76.5236L1695.58 144.94V0H1747V211H1669.19L1654.17 194.06L1649.06 188.3Z" fill="#00407C"/>
<path d="M621.651 25.5103L652.734 108.419L683.817 25.5103H621.651Z" fill="#00407C"/>
<path d="M992.52 210.668H1027.22H1061.92L1146.87 1.51815e-05H1081.48L1027.22 142.491L972.968 0H907.576L992.52 210.668Z" fill="#00407C"/>
<path d="M996.64 25.1785L1027.72 108.087L1058.8 25.1785H996.64Z" fill="#00407C"/>
<path d="M1438.3 -7.43634e-06L1403.59 -1.04536e-05L1368.89 -1.34947e-05L1283.95 210.668H1349.34L1403.59 68.1769L1457.85 210.668H1523.24L1438.3 -7.43634e-06Z" fill="#00407C"/>
<path d="M1434.18 185.49L1403.09 102.581L1372.01 185.49H1434.18Z" fill="#00407C"/>
<path d="M1654.17 54.2205L1682.04 99.8428L1685.63 105.719V32.685H1682.04H1641.01L1654.17 54.2205Z" fill="#00407C"/>
</svg>
