<svg width="132" height="133" viewBox="0 0 132 133" fill="none" xmlns="http://www.w3.org/2000/svg">
<path d="M42.3258 58.7491V66.1644C42.3258 66.7166 41.8781 67.1644 41.3258 67.1644H36.1307V76.2642C36.1307 77.1553 35.0531 77.6014 34.4232 76.971L24.6254 67.1644H3.5C2.94772 67.1644 2.5 66.7166 2.5 66.1644V42.9187C2.5 42.3664 2.94772 41.9187 3.5 41.9187H26.838M100.073 23.981V6.5C100.073 4.29086 98.2823 2.5 96.0732 2.5H36.8118C34.6027 2.5 32.8118 4.29086 32.8118 6.5V48.5484C32.8118 50.7576 34.6027 52.5484 36.8118 52.5484H54.4948L63.6128 61.6747C65.1752 63.2385 67.7098 63.2385 69.2722 61.6747L78.3902 52.5484H83.4791M96.5331 76.4654V67.1644C92.0119 67.1644 88.3467 63.4992 88.3467 58.9779V42.1817C88.3467 35.5542 93.7193 30.1817 100.347 30.1817H117.5C124.127 30.1817 129.5 35.5542 129.5 42.1817V55.1644C129.5 61.7918 124.127 67.1644 117.5 67.1644H106.49L96.5331 77.1298M42.3258 130.5H90.1167V129.371C90.1167 116.174 79.4184 105.476 66.2213 105.476C53.0242 105.476 42.3258 116.174 42.3258 129.371V130.5ZM66.4425 39.4827C70.9413 35.25 80.1603 26.4011 81.0453 24.8668C82.1516 22.9489 82.3728 18.5315 78.3902 16.2301C74.4077 13.9287 69.9826 16.0087 66.4425 20.4377C62.9024 16.0087 58.4774 13.9287 54.4948 16.2301C50.5122 18.5315 50.7334 22.9489 51.8397 24.8668C52.7247 26.4011 61.9437 35.25 66.4425 39.4827ZM78.3902 85.4343C78.3902 79.0132 73.185 73.808 66.7639 73.808H66.1211C59.7001 73.808 54.4948 79.0132 54.4948 85.4343C54.4948 91.8553 59.7 97.0606 66.1211 97.0606H66.7639C73.185 97.0606 78.3902 91.8553 78.3902 85.4343ZM108.931 43.4204L102.487 54.592C102.102 55.2587 102.584 56.0917 103.353 56.0917H116.242C117.011 56.0917 117.492 55.2587 117.108 54.592L110.664 43.4204C110.279 42.7533 109.316 42.7533 108.931 43.4204Z" stroke="#0D62B2" stroke-width="5" stroke-linecap="round"/>
</svg>
