<svg width="648" height="648" viewBox="0 0 648 648" fill="none" xmlns="http://www.w3.org/2000/svg">
<path d="M641.879 50.3788L596.793 5.29304C596.403 4.90252 595.769 4.90252 595.379 5.29304L323.586 277.086L51.793 5.29303C51.4025 4.90251 50.7693 4.90252 50.3788 5.29304L5.29303 50.3788C4.90253 50.7694 4.90253 51.4025 5.29303 51.793L277.086 323.586L5.29304 595.379C4.90252 595.769 4.90252 596.403 5.29304 596.793L50.3788 641.879C50.7694 642.269 51.4025 642.269 51.793 641.879L323.586 370.086L595.379 641.879C595.769 642.269 596.403 642.269 596.793 641.879L641.879 596.793C642.269 596.403 642.269 595.769 641.879 595.379L370.086 323.586L641.879 51.793C642.269 51.4025 642.269 50.7694 641.879 50.3788Z" fill="#EEF3FB" stroke="black" stroke-width="10" stroke-linecap="round"/>
</svg>
