<svg width="310" height="66" viewBox="0 0 310 66" fill="none" xmlns="http://www.w3.org/2000/svg">
<path d="M27.2021 29.6283L37.9221 46.7883L48.6421 29.6283H27.2021ZM27.2021 29.6283L22.2568 21.712L11.8167 5M11.8167 5H2.70508L37.6887 61L57.7051 28.9588L53.178 21.712H33.9925L28.223 12.4764H47.4084L42.7379 5H11.8167Z" stroke="url(#paint0_linear_838_333)" stroke-width="3"/>
<path d="M88.7371 20.5L81.4891 3.7H85.6891L92.0251 18.58H89.5531L95.9851 3.7H99.8491L92.5771 20.5H88.7371ZM102.452 20.5V3.7H106.34V20.5H102.452ZM116.215 20.5L108.967 3.7H113.167L119.503 18.58H117.031L123.463 3.7H127.327L120.055 20.5H116.215ZM129.93 20.5V3.7H133.818V20.5H129.93ZM136.797 20.5L144.285 3.7H148.125L155.637 20.5H151.557L145.413 5.668H146.949L140.781 20.5H136.797ZM140.541 16.9L141.573 13.948H150.213L151.269 16.9H140.541ZM158.58 20.5V3.7H161.796L171.708 15.796H170.148V3.7H173.988V20.5H170.796L160.86 8.404H162.42V20.5H158.58ZM192.68 20.788C191.336 20.788 190.048 20.612 188.816 20.26C187.584 19.892 186.592 19.42 185.84 18.844L187.16 15.916C187.88 16.428 188.728 16.852 189.704 17.188C190.696 17.508 191.696 17.668 192.704 17.668C193.472 17.668 194.088 17.596 194.552 17.452C195.032 17.292 195.384 17.076 195.608 16.804C195.832 16.532 195.944 16.22 195.944 15.868C195.944 15.42 195.768 15.068 195.416 14.812C195.064 14.54 194.6 14.324 194.024 14.164C193.448 13.988 192.808 13.828 192.104 13.684C191.416 13.524 190.72 13.332 190.016 13.108C189.328 12.884 188.696 12.596 188.12 12.244C187.544 11.892 187.072 11.428 186.704 10.852C186.352 10.276 186.176 9.54 186.176 8.644C186.176 7.684 186.432 6.812 186.944 6.028C187.472 5.228 188.256 4.596 189.296 4.132C190.352 3.652 191.672 3.412 193.256 3.412C194.312 3.412 195.352 3.54 196.376 3.796C197.4 4.036 198.304 4.404 199.088 4.9L197.888 7.852C197.104 7.404 196.32 7.076 195.536 6.868C194.752 6.644 193.984 6.532 193.232 6.532C192.48 6.532 191.864 6.62 191.384 6.796C190.904 6.972 190.56 7.204 190.352 7.492C190.144 7.764 190.04 8.084 190.04 8.452C190.04 8.884 190.216 9.236 190.568 9.508C190.92 9.764 191.384 9.972 191.96 10.132C192.536 10.292 193.168 10.452 193.856 10.612C194.56 10.772 195.256 10.956 195.944 11.164C196.648 11.372 197.288 11.652 197.864 12.004C198.44 12.356 198.904 12.82 199.256 13.396C199.624 13.972 199.808 14.7 199.808 15.58C199.808 16.524 199.544 17.388 199.016 18.172C198.488 18.956 197.696 19.588 196.64 20.068C195.6 20.548 194.28 20.788 192.68 20.788ZM206.91 20.5V6.868H201.534V3.7H216.174V6.868H210.798V20.5H206.91ZM227.391 20.788C226.063 20.788 224.831 20.572 223.695 20.14C222.575 19.708 221.599 19.1 220.767 18.316C219.951 17.532 219.311 16.612 218.847 15.556C218.399 14.5 218.175 13.348 218.175 12.1C218.175 10.852 218.399 9.7 218.847 8.644C219.311 7.588 219.959 6.668 220.791 5.884C221.623 5.1 222.599 4.492 223.719 4.06C224.839 3.628 226.055 3.412 227.367 3.412C228.695 3.412 229.911 3.628 231.015 4.06C232.135 4.492 233.103 5.1 233.919 5.884C234.751 6.668 235.399 7.588 235.863 8.644C236.327 9.684 236.559 10.836 236.559 12.1C236.559 13.348 236.327 14.508 235.863 15.58C235.399 16.636 234.751 17.556 233.919 18.34C233.103 19.108 232.135 19.708 231.015 20.14C229.911 20.572 228.703 20.788 227.391 20.788ZM227.367 17.476C228.119 17.476 228.807 17.348 229.431 17.092C230.071 16.836 230.631 16.468 231.111 15.988C231.591 15.508 231.959 14.94 232.215 14.284C232.487 13.628 232.623 12.9 232.623 12.1C232.623 11.3 232.487 10.572 232.215 9.916C231.959 9.26 231.591 8.692 231.111 8.212C230.647 7.732 230.095 7.364 229.455 7.108C228.815 6.852 228.119 6.724 227.367 6.724C226.615 6.724 225.919 6.852 225.279 7.108C224.655 7.364 224.103 7.732 223.623 8.212C223.143 8.692 222.767 9.26 222.495 9.916C222.239 10.572 222.111 11.3 222.111 12.1C222.111 12.884 222.239 13.612 222.495 14.284C222.767 14.94 223.135 15.508 223.599 15.988C224.079 16.468 224.639 16.836 225.279 17.092C225.919 17.348 226.615 17.476 227.367 17.476ZM240.681 20.5V3.7H244.569V17.332H252.993V20.5H240.681ZM258.041 20.5V6.868H252.665V3.7H267.305V6.868H261.929V20.5H258.041Z" fill="#B7DDFB"/>
<rect width="226" height="3" transform="translate(81.7051 31.5)" fill="#B7DDFB"/>
<path d="M91.1611 62.788C88.7771 62.788 86.9131 62.124 85.5691 60.796C84.2251 59.468 83.5531 57.572 83.5531 55.108V45.7H87.4411V54.964C87.4411 56.564 87.7691 57.716 88.4251 58.42C89.0811 59.124 90.0011 59.476 91.1851 59.476C92.3691 59.476 93.2891 59.124 93.9451 58.42C94.6011 57.716 94.9291 56.564 94.9291 54.964V45.7H98.7691V55.108C98.7691 57.572 98.0971 59.468 96.7531 60.796C95.4091 62.124 93.5451 62.788 91.1611 62.788ZM103.811 62.5V45.7H107.699V62.5H103.811ZM110.102 64.9L118.022 42.292H121.358L113.438 64.9H110.102ZM130.949 62.788C128.565 62.788 126.701 62.124 125.357 60.796C124.013 59.468 123.341 57.572 123.341 55.108V45.7H127.229V54.964C127.229 56.564 127.557 57.716 128.213 58.42C128.869 59.124 129.789 59.476 130.973 59.476C132.157 59.476 133.077 59.124 133.733 58.42C134.389 57.716 134.717 56.564 134.717 54.964V45.7H138.557V55.108C138.557 57.572 137.885 59.468 136.541 60.796C135.197 62.124 133.333 62.788 130.949 62.788ZM141.444 62.5L148.668 52.54V55.372L141.756 45.7H146.172L150.948 52.444L149.1 52.468L153.804 45.7H158.028L151.164 55.204V52.42L158.436 62.5H153.948L149.004 55.372H150.78L145.908 62.5H141.444ZM169.694 62.5V45.7H177.326C179.15 45.7 180.758 46.052 182.15 46.756C183.542 47.444 184.63 48.412 185.414 49.66C186.198 50.908 186.59 52.388 186.59 54.1C186.59 55.796 186.198 57.276 185.414 58.54C184.63 59.788 183.542 60.764 182.15 61.468C180.758 62.156 179.15 62.5 177.326 62.5H169.694ZM173.582 59.308H177.134C178.254 59.308 179.222 59.1 180.038 58.684C180.87 58.252 181.51 57.644 181.958 56.86C182.422 56.076 182.654 55.156 182.654 54.1C182.654 53.028 182.422 52.108 181.958 51.34C181.51 50.556 180.87 49.956 180.038 49.54C179.222 49.108 178.254 48.892 177.134 48.892H173.582V59.308ZM190.722 62.5V45.7H203.418V48.82H194.586V59.38H203.73V62.5H190.722ZM194.298 55.492V52.468H202.386V55.492H194.298ZM213.544 62.788C212.2 62.788 210.912 62.612 209.68 62.26C208.448 61.892 207.456 61.42 206.704 60.844L208.024 57.916C208.744 58.428 209.592 58.852 210.568 59.188C211.56 59.508 212.56 59.668 213.568 59.668C214.336 59.668 214.952 59.596 215.416 59.452C215.896 59.292 216.248 59.076 216.472 58.804C216.696 58.532 216.808 58.22 216.808 57.868C216.808 57.42 216.632 57.068 216.28 56.812C215.928 56.54 215.464 56.324 214.888 56.164C214.312 55.988 213.672 55.828 212.968 55.684C212.28 55.524 211.584 55.332 210.88 55.108C210.192 54.884 209.56 54.596 208.984 54.244C208.408 53.892 207.936 53.428 207.568 52.852C207.216 52.276 207.04 51.54 207.04 50.644C207.04 49.684 207.296 48.812 207.808 48.028C208.336 47.228 209.12 46.596 210.16 46.132C211.216 45.652 212.536 45.412 214.12 45.412C215.176 45.412 216.216 45.54 217.24 45.796C218.264 46.036 219.168 46.404 219.952 46.9L218.752 49.852C217.968 49.404 217.184 49.076 216.4 48.868C215.616 48.644 214.848 48.532 214.096 48.532C213.344 48.532 212.728 48.62 212.248 48.796C211.768 48.972 211.424 49.204 211.216 49.492C211.008 49.764 210.904 50.084 210.904 50.452C210.904 50.884 211.08 51.236 211.432 51.508C211.784 51.764 212.248 51.972 212.824 52.132C213.4 52.292 214.032 52.452 214.72 52.612C215.424 52.772 216.12 52.956 216.808 53.164C217.512 53.372 218.152 53.652 218.728 54.004C219.304 54.356 219.768 54.82 220.12 55.396C220.488 55.972 220.672 56.7 220.672 57.58C220.672 58.524 220.408 59.388 219.88 60.172C219.352 60.956 218.56 61.588 217.504 62.068C216.464 62.548 215.144 62.788 213.544 62.788ZM224.528 62.5V45.7H228.416V62.5H224.528ZM241.715 62.788C240.387 62.788 239.163 62.58 238.043 62.164C236.939 61.732 235.971 61.124 235.139 60.34C234.323 59.556 233.683 58.636 233.219 57.58C232.771 56.524 232.547 55.364 232.547 54.1C232.547 52.836 232.771 51.676 233.219 50.62C233.683 49.564 234.331 48.644 235.163 47.86C235.995 47.076 236.971 46.476 238.091 46.06C239.211 45.628 240.443 45.412 241.787 45.412C243.275 45.412 244.611 45.66 245.795 46.156C246.995 46.652 248.003 47.372 248.819 48.316L246.323 50.62C245.715 49.98 245.051 49.508 244.331 49.204C243.611 48.884 242.827 48.724 241.979 48.724C241.163 48.724 240.419 48.852 239.747 49.108C239.075 49.364 238.491 49.732 237.995 50.212C237.515 50.692 237.139 51.26 236.867 51.916C236.611 52.572 236.483 53.3 236.483 54.1C236.483 54.884 236.611 55.604 236.867 56.26C237.139 56.916 237.515 57.492 237.995 57.988C238.491 58.468 239.067 58.836 239.723 59.092C240.395 59.348 241.131 59.476 241.931 59.476C242.699 59.476 243.443 59.356 244.163 59.116C244.899 58.86 245.611 58.436 246.299 57.844L248.507 60.652C247.595 61.34 246.531 61.868 245.315 62.236C244.115 62.604 242.915 62.788 241.715 62.788ZM248.507 60.652L244.955 60.148V53.836H248.507V60.652ZM253.319 62.5V45.7H256.535L266.447 57.796H264.887V45.7H268.727V62.5H265.535L255.599 50.404H257.159V62.5H253.319ZM273.902 62.5V45.7H286.598V48.82H277.766V59.38H286.91V62.5H273.902ZM277.478 55.492V52.468H285.566V55.492H277.478ZM291.203 62.5V45.7H298.379C300.715 45.7 302.531 46.244 303.827 47.332C305.123 48.404 305.771 49.892 305.771 51.796C305.771 53.044 305.475 54.124 304.883 55.036C304.291 55.932 303.451 56.62 302.363 57.1C301.275 57.58 299.979 57.82 298.475 57.82H293.363L295.091 56.116V62.5H291.203ZM301.883 62.5L297.683 56.404H301.835L306.083 62.5H301.883ZM295.091 56.548L293.363 54.724H298.259C299.459 54.724 300.355 54.468 300.947 53.956C301.539 53.428 301.835 52.708 301.835 51.796C301.835 50.868 301.539 50.148 300.947 49.636C300.355 49.124 299.459 48.868 298.259 48.868H293.363L295.091 47.02V56.548Z" fill="#B7DDFB"/>
<defs>
<linearGradient id="paint0_linear_838_333" x1="0.961156" y1="3.47931" x2="44.3197" y2="57.342" gradientUnits="userSpaceOnUse">
<stop stop-color="#B7DDFB"/>
<stop offset="0.380039" stop-color="#B7DDFB" stop-opacity="0.8"/>
<stop offset="0.45" stop-color="#B7DDFB" stop-opacity="0.8"/>
<stop offset="0.5" stop-color="#D1F3FE"/>
<stop offset="0.545039" stop-color="#EEF3FB"/>
<stop offset="0.625039" stop-color="#006DA4"/>
<stop offset="1" stop-color="#0D62B2"/>
</linearGradient>
</defs>
</svg>
